<svg width="107" height="107" viewBox="0 0 107 107" fill="none" xmlns="http://www.w3.org/2000/svg">
<path d="M53.3347 2.35645C40.9236 2.35689 28.9175 6.77392 19.4652 14.8164C10.0124 22.8589 3.73001 34.0028 1.74195 46.2538C-0.246111 58.5044 2.18997 71.063 8.61417 81.6825C15.0379 92.301 25.0311 100.288 36.8053 104.213C39.4187 104.671 40.3987 103.103 40.3987 101.731C40.3987 100.489 40.3334 96.3732 40.3334 91.9957C27.201 94.4131 23.8035 88.7947 22.7582 85.8546C21.5981 82.9954 19.7594 80.4615 17.4007 78.4717C15.5713 77.4917 12.9579 75.0743 17.3353 75.0089C19.0069 75.1903 20.6097 75.7721 22.0088 76.7045C23.4075 77.637 24.5613 78.8935 25.3716 80.3664C26.0863 81.6505 27.0476 82.7812 28.2001 83.6932C29.3526 84.6052 30.674 85.2812 32.0882 85.6813C33.5025 86.0817 34.9817 86.1995 36.4413 86.0275C37.9009 85.8555 39.3125 85.3973 40.5943 84.6786C40.8205 82.0211 42.005 79.5366 43.9268 77.6877C32.2971 76.381 20.1447 71.8728 20.1447 51.8802C20.0714 46.6858 21.9879 41.6599 25.5022 37.8335C23.9044 33.3187 24.0911 28.3639 26.0249 23.9825C26.0249 23.9825 30.402 22.6104 40.3987 29.34C48.951 26.9879 57.9797 26.9879 66.5324 29.34C76.5287 22.5451 80.9062 23.9825 80.9062 23.9825C82.84 28.3639 83.0272 33.3187 81.4289 37.8335C84.953 41.6532 86.8722 46.684 86.7864 51.8802C86.7864 71.9382 74.5687 76.381 62.939 77.6877C64.1861 78.9517 65.1466 80.47 65.7555 82.138C66.3644 83.807 66.6071 85.587 66.4671 87.3573C66.4671 94.3486 66.4017 99.9666 66.4017 101.731C66.4017 103.103 67.3818 104.736 69.9952 104.213C81.7484 100.256 91.7128 92.2508 98.1094 81.6265C104.506 71.0017 106.919 58.4493 104.917 46.2103C102.915 33.9717 96.6294 22.8424 87.1806 14.8097C77.7323 6.77658 65.7364 2.36311 53.3347 2.35645Z" fill="white"/>
</svg>
